<?xml version="1.0" encoding="utf-8"?>
<!-- Generator: Adobe Illustrator 27.9.0, SVG Export Plug-In . SVG Version: 6.00 Build 0)  -->
<svg version="1.1" id="Layer_1" xmlns="http://www.w3.org/2000/svg" xmlns:xlink="http://www.w3.org/1999/xlink" x="0px" y="0px"
	 viewBox="0 0 709.3 254.3" style="enable-background:new 0 0 709.3 254.3;" xml:space="preserve">
<style type="text/css">
	.st0{fill:#D1FF00;}
	.st1{fill:#95B603;}
	.st2{fill:#6D8404;}
	.st3{fill:#445205;}
</style>
<g>
	<path class="st0" d="M110.4,140.8l33.2-40.3h128.7L338.7,223H101.8c0,0-86.8-10-90.4-101.3s94-102,94-102h204.8l78.6,146l80.7-146
		h42.9L564.9,223h-47.5L483.2,91.2l-72,131.7h-43.9L283.6,69.3l-177.2,1.5c-24.8,5.5-40,20.5-42.9,48c0.9,32.5,15.4,51.3,45.5,54.6
		l149.6,0.5l-17.9-34.2L110.4,140.8z"/>
	<polygon class="st1" points="528.2,19.7 558.5,19.7 612.6,223 580.6,223 	"/>
	<polygon class="st2" points="570.4,19.7 600.7,19.7 654.8,223 622.8,223 	"/>
	<polygon class="st3" points="612.6,19.7 642.9,19.7 697,223 665,223 	"/>
</g>
</svg>
