<svg width="256" height="256" viewBox="0 0 256 256" fill="none" xmlns="http://www.w3.org/2000/svg">
<rect width="256" height="256" rx="128" fill="black"/>
<path fill-rule="evenodd" clip-rule="evenodd" d="M125.297 83.7468L125.297 220.2L105.449 200.352L105.421 200.38L41.3227 136.281L41.3506 136.253L41 135.903V83.7468V61V61L102.55 61H125.297V83.7468ZM102.55 83.7468H63.7468V126.537L102.55 165.34V83.7468Z" fill="white"/>
<path fill-rule="evenodd" clip-rule="evenodd" d="M148.044 61H170.791V113.254L192.199 100.894V61H214.946L214.946 87.761L214.946 104.302L214.946 114.027L185.066 131.278L215 153.466L198.739 169.728L170.791 149.011V197.676L148.239 220.228H148.044V152.653V126.387V61Z" fill="white"/>
</svg>
